<?xml version="1.0" encoding="UTF-8" standalone="no"?>
<!-- Created with Inkscape (http://www.inkscape.org/) -->

<svg
   xmlns:dc="http://purl.org/dc/elements/1.1/"
   xmlns:cc="http://creativecommons.org/ns#"
   xmlns:rdf="http://www.w3.org/1999/02/22-rdf-syntax-ns#"
   xmlns:svg="http://www.w3.org/2000/svg"
   xmlns="http://www.w3.org/2000/svg"
   xmlns:sodipodi="http://sodipodi.sourceforge.net/DTD/sodipodi-0.dtd"
   xmlns:inkscape="http://www.inkscape.org/namespaces/inkscape"
   width="210mm"
   height="297mm"
   id="svg3076"
   version="1.1"
   inkscape:version="0.48.1 "
   sodipodi:docname="Documento nuevo 5">
  <defs
     id="defs3078" />
  <sodipodi:namedview
     id="base"
     pagecolor="#ffffff"
     bordercolor="#666666"
     borderopacity="1.0"
     inkscape:pageopacity="0.0"
     inkscape:pageshadow="2"
     inkscape:zoom="0.35"
     inkscape:cx="-11.428571"
     inkscape:cy="520"
     inkscape:document-units="px"
     inkscape:current-layer="layer1"
     showgrid="false"
     inkscape:window-width="1366"
     inkscape:window-height="706"
     inkscape:window-x="-8"
     inkscape:window-y="-8"
     inkscape:window-maximized="1" />
  <metadata
     id="metadata3081">
    <rdf:RDF>
      <cc:Work
         rdf:about="">
        <dc:format>image/svg+xml</dc:format>
        <dc:type
           rdf:resource="http://purl.org/dc/dcmitype/StillImage" />
        <dc:title></dc:title>
      </cc:Work>
    </rdf:RDF>
  </metadata>
  <g
     inkscape:label="Capa 1"
     inkscape:groupmode="layer"
     id="layer1">
    <path
       style="fill:#ff0000;fill-opacity:1;fill-rule:nonzero;stroke:none"
       d="m 354.91964,114.75893 c -198.82252,0 -359.9999984,161.17748 -359.9999984,360 0,198.82252 161.1774784,360 359.9999984,360 198.82252,0 360,-161.17748 360,-360 l -0.0312,-2.8125 C 713.34331,274.22769 552.64442,114.75893 354.91964,114.75893 z m -62.75,114.75 125.46875,0 c 0.86608,0 1.5625,0.69643 1.5625,1.5625 l 0,179.40625 188.4375,0 c 0.86608,0 1.5625,0.69642 1.5625,1.5625 l 0,125.4375 c 0,0.86608 -0.69642,1.5625 -1.5625,1.5625 l -188.4375,0 0,197.46875 c 0,0.86608 -0.69642,1.5625 -1.5625,1.5625 l -125.46875,0 c -0.86608,0 -1.5625,-0.69642 -1.5625,-1.5625 l 0,-197.46875 -188.4375,0 c -0.86608,0 -1.5625,-0.69642 -1.5625,-1.5625 l 0,-125.4375 c 0,-0.86608 0.69642,-1.5625 1.5625,-1.5625 l 188.4375,0 0,-179.40625 c 0,-0.86607 0.69642,-1.5625 1.5625,-1.5625 z"
       id="path3084"
       inkscape:connector-curvature="0" />
  </g>
</svg>
